<?xml version="1.0" encoding="utf-8"?>
<!-- Generator: Adobe Illustrator 22.0.1, SVG Export Plug-In . SVG Version: 6.00 Build 0)  -->
<svg version="1.1" id="Ebene_1" xmlns="http://www.w3.org/2000/svg" xmlns:xlink="http://www.w3.org/1999/xlink" x="0px" y="0px"
	 viewBox="0 0 1133.9 1133.9" style="enable-background:new 0 0 1133.9 1133.9;" xml:space="preserve">
<style type="text/css">
	.st0{fill:#F4F4F4;}
	.st1{fill:#383737;}
	.st2{font-family:'Roboto-Medium';}
	.st3{font-size:308.876px;}
	.st4{fill:#5CC67C;}
</style>
<title>skills</title>
<g>
	<path class="st0" d="M566.9,141.7c-234.8,0-425.2,190.4-425.2,425.2s190.4,425.2,425.2,425.2s425.2-190.4,425.2-425.2
		S801.7,141.7,566.9,141.7z M566.9,917c-193.4,0-350.2-156.8-350.2-350.2s156.8-350.1,350.2-350.1s350.2,156.8,350.2,350.2
		S760.3,917,566.9,917z"/>
	<text transform="matrix(1 0 0 1 422.4385 657.1874)" class="st1 st2 st3">ID</text>
	<path class="st4" d="M566.9,141.7v75c193.4,0,350.2,156.8,350.2,350.2S760.3,917.1,566.9,917.1c-93.1,0.1-182.3-37-248-103l-53,53
		c79.7,80.1,188,125.1,301,125c234.8,0,425.2-190.4,425.2-425.2S801.7,141.7,566.9,141.7z"/>
</g>
</svg>
