<?xml version="1.0" encoding="utf-8"?>
<!-- Generator: Adobe Illustrator 22.0.1, SVG Export Plug-In . SVG Version: 6.00 Build 0)  -->
<svg version="1.1" id="Ebene_1" xmlns="http://www.w3.org/2000/svg" xmlns:xlink="http://www.w3.org/1999/xlink" x="0px" y="0px"
	 viewBox="0 0 512 512" style="enable-background:new 0 0 512 512;" xml:space="preserve">
<style type="text/css">
	.st0{fill:#5CC45C;}
</style>
<path id="briefcase-5-icon" class="st0" d="M353.3,220.3v14.8c0,3-1.5,5.8-3.9,7.6c-32.4,22.9-152.4,22.4-185.9-1
	c-2.5-1.7-3.9-4.6-3.9-7.6v-13.8H353.3L353.3,220.3z M369.8,203.8H143v33.8c0,50.4,226.8,51.9,226.8,1.1V203.8z M348.9,273.7v57.6
	H164v-58.5c-6.5-2.6-12-5.6-16.5-8.8v83.9h217.9v-82.8C360.9,268.3,355.4,271.2,348.9,273.7z M226.6,183.4c0-2.1,1.7-3.7,3.7-3.7
	h52.1c2.1,0,3.7,1.7,3.7,3.7v9.4h16.5V176c0-6.5-5.2-11.7-11.7-11.7h-69.2c-6.5,0-11.7,5.2-11.7,11.7v16.8h16.5v-9.4H226.6z
	 M268.9,286.9h-25v9.9c0,6.9,5.6,12.5,12.5,12.5s12.5-5.6,12.5-12.5V286.9L268.9,286.9z"/>
</svg>
