<?xml version="1.0" encoding="utf-8"?>
<!-- Generator: Adobe Illustrator 22.0.1, SVG Export Plug-In . SVG Version: 6.00 Build 0)  -->
<svg version="1.1" id="Ebene_1" xmlns="http://www.w3.org/2000/svg" xmlns:xlink="http://www.w3.org/1999/xlink" x="0px" y="0px"
	 viewBox="0 0 512 512" style="enable-background:new 0 0 512 512;" xml:space="preserve">
<style type="text/css">
	.st0{fill:#5CC45C;}
</style>
<path id="certificate-12" class="st0" d="M288.1,283.3c-2.2,6.5-2.2,5.2,0,11.8c0.2,0.7,0.3,1.4,0.3,2.1c0,2.1-1,4.1-2.8,5.3
	c-5.8,4-5,3-7.2,9.5c-0.9,2.7-3.5,4.6-6.5,4.6l0,0c-7.1,0-5.9-0.4-11.7,3.6c-1.2,0.8-2.6,1.3-4,1.3s-2.8-0.4-4-1.3
	c-5.8-4-4.5-3.7-11.7-3.6l0,0c-3,0-5.6-1.8-6.5-4.6c-2.2-6.5-1.4-5.5-7.2-9.5c-1.8-1.3-2.8-3.3-2.8-5.3c0-0.7,0.1-1.4,0.3-2.1
	c2.2-6.5,2.2-5.2,0-11.8c-0.2-0.7-0.3-1.4-0.3-2.1c0-2.1,1-4.1,2.8-5.3c5.8-4,5-3,7.2-9.5c0.9-2.7,3.5-4.6,6.5-4.6l0,0
	c7.1,0,5.9,0.4,11.7-3.6c1.2-0.8,2.6-1.3,4-1.3s2.8,0.4,4,1.3c5.8,4,4.5,3.7,11.7,3.6l0,0c3,0,5.6,1.8,6.5,4.6
	c2.2,6.5,1.4,5.5,7.2,9.5c1.8,1.3,2.8,3.3,2.8,5.3C288.5,281.9,288.4,282.6,288.1,283.3z M272.3,289.1c0-8.9-7.2-16.1-16.1-16.1
	s-16.1,7.2-16.1,16.1s7.2,16.1,16.1,16.1C265.1,305.3,272.3,298,272.3,289.1z M244.1,325.7c-3.5,0-6.3-0.3-8.6-1
	c-1.4,14.1-6.3,24.7-16.1,35c3.9,0.5,9-0.4,13-2.6c1.5,2.9,3,6.6,3.5,10.4c9.3-10.6,15-23.3,17.2-37.2
	C248.8,329.4,247.5,328,244.1,325.7z M268.4,325.7c-3.4,2.3-4.8,3.8-9.1,4.6c2.2,13.9,7.9,26.6,17.2,37.2c0.5-3.8,2.1-7.4,3.5-10.4
	c4.1,2.1,9.1,3.1,13,2.6c-9.8-10.2-14.6-20.9-16-35C274.7,325.3,271.9,325.7,268.4,325.7z M164.1,146.3v193.5h47.5
	c3.1-4.9,4.9-10.2,5.5-17l0.1-1.5h-34.7V164.8h147.4v156.6h-34.7l0.1,1.4c0.7,6.8,2.4,12.1,5.5,17h47.5V146.3H164.1z M311.5,192.4
	H200.9v9.2h110.6V192.4z M311.5,210.8H200.9v9.2h110.6V210.8z M311.5,229.3H200.9v9.2h110.6V229.3z"/>
</svg>
