<?xml version="1.0" encoding="utf-8"?>
<!-- Generator: Adobe Illustrator 22.0.1, SVG Export Plug-In . SVG Version: 6.00 Build 0)  -->
<svg version="1.1" id="Ebene_1" xmlns="http://www.w3.org/2000/svg" xmlns:xlink="http://www.w3.org/1999/xlink" x="0px" y="0px"
	 viewBox="0 0 512 512" style="enable-background:new 0 0 512 512;" xml:space="preserve">
<style type="text/css">
	.st0{fill:#5CC45C;}
</style>
<path id="instagram-6-icon" class="st0" d="M414.5,224.3h-35.9c2.6,10.1,4.2,20.7,4.2,31.7c0,70-56.8,126.8-126.8,126.8
	S129.2,326,129.2,256c0-11,1.5-21.6,4.2-31.7H97.5v174.3c0,8.7,7.1,15.8,15.9,15.8h285.2c8.8,0,15.9-7.1,15.9-15.8V224.3
	L414.5,224.3z M414.5,113.4c0-8.8-7.1-15.8-15.9-15.8h-47.5c-8.8,0-15.8,7.1-15.8,15.8v47.5c0,8.7,7.1,15.8,15.8,15.8h47.5
	c8.8,0,15.9-7.1,15.9-15.8V113.4z M256,176.8c-43.8,0-79.2,35.5-79.2,79.2c0,43.8,35.5,79.2,79.2,79.2c43.8,0,79.2-35.5,79.2-79.2
	S299.8,176.8,256,176.8 M414.5,462h-317C71.3,462,50,440.7,50,414.4V97.6c0-26.3,21.3-47.5,47.5-47.5h316.9
	c26.2,0,47.5,21.3,47.5,47.5v316.9C462,440.7,440.7,462,414.5,462"/>
</svg>
